<?xml version="1.0" encoding="UTF-8" standalone="no"?><svg xmlns="http://www.w3.org/2000/svg" xmlns:xlink="http://www.w3.org/1999/xlink" contentScriptType="application/ecmascript" contentStyleType="text/css" height="474px" preserveAspectRatio="none" style="width:1351px;height:474px;" version="1.1" viewBox="0 0 1351 474" width="1351.8px" zoomAndPan="magnify"><defs/><g><!--MD5=[8237f0313b7e89f796726a268ea6fa70]
cluster Logic--><rect fill="#FFFFFF" height="293.4" style="stroke: #000000; stroke-width: 0.8999999999999999;" width="383.4" x="961.8" y="174"/><text fill="#000000" font-family="sans-serif" font-size="8.4" font-weight="bold" lengthAdjust="spacingAndGlyphs" textLength="22.8" x="1142.1" y="183.9199">Logic</text><!--MD5=[7c76d2c3a8a2b6b7f38b9d3310256c36]
cluster Commands--><rect fill="#FFFFFF" height="253.8" style="stroke: #000000; stroke-width: 0.8999999999999999;" width="919.8" x="18" y="19.2"/><text fill="#000000" font-family="sans-serif" font-size="8.4" font-weight="bold" lengthAdjust="spacingAndGlyphs" textLength="46.2" x="454.8" y="29.1199">Commands</text><!--MD5=[a6f77da3ac33aa2b584777c7405dead0]
cluster LedgerCommands--><rect fill="#FFFFFF" height="85.2" style="stroke: #000000; stroke-width: 0.8999999999999999;" width="332.4" x="581.4" y="60"/><text fill="#000000" font-family="sans-serif" font-size="8.4" font-weight="bold" lengthAdjust="spacingAndGlyphs" textLength="76.2" x="709.5" y="69.9199">LedgerCommands</text><!--MD5=[d6545d8b8a42c4839247ba6ec98e733f]
cluster EntryCommands--><rect fill="#FFFFFF" height="94.8" style="stroke: #000000; stroke-width: 0.8999999999999999;" width="520.2" x="42" y="55.2"/><text fill="#000000" font-family="sans-serif" font-size="8.4" font-weight="bold" lengthAdjust="spacingAndGlyphs" textLength="67.8" x="268.2" y="65.1199">EntryCommands</text><!--MD5=[ef3b718f1b92e0420ab2c4c3e0ffab53]
class ParamHandler--><rect fill="#FEFECE" height="133.3312" id="ParamHandler" style="stroke: #A80036; stroke-width: 0.8999999999999999;" width="208.2" x="1057.5" y="319.8"/><ellipse cx="1134.75" cy="331.8563" fill="#A9DCDF" rx="6.6" ry="6.6" style="stroke: #A80036; stroke-width: 0.6;"/><path d="M1135.8,332.7562 L1133.8219,332.7562 L1133.5594,333.3563 L1133.5594,333.3563 L1133.8406,333.3563 L1134.15,333.7313 L1134.15,333.9563 L1134.15,334.1813 L1133.8406,334.5563 L1133.5594,334.5563 L1132.425,334.5563 L1132.0594,334.5563 L1131.75,334.1813 L1131.75,333.9563 L1131.75,333.7313 L1132.0594,333.3563 L1132.425,333.3563 L1133.8125,329.7562 L1133.2875,329.7562 L1132.6594,329.7562 L1132.35,329.3812 L1132.35,329.1563 L1132.35,328.9313 L1132.6594,328.5563 L1133.2875,328.5563 L1135.4906,328.5563 L1137.1031,333.3563 L1137.4406,333.3563 L1137.4406,333.3563 L1137.75,333.7313 L1137.75,333.9563 L1137.75,334.1813 L1137.4406,334.5563 L1137.1031,334.5563 L1135.9688,334.5563 L1135.6594,334.5563 L1135.35,334.1813 L1135.35,333.9563 L1135.35,333.7313 L1135.6594,333.3563 L1135.9688,333.3563 L1135.9688,333.3563 L1135.8,332.7562 Z M1135.4719,331.5563 L1134.75,329.4094 L1134.1313,331.5563 L1135.4719,331.5563 Z "/><text fill="#000000" font-family="sans-serif" font-size="7.2" font-style="italic" lengthAdjust="spacingAndGlyphs" textLength="39.6" x="1151.55" y="330.2742">«Singleton»</text><text fill="#000000" font-family="sans-serif" font-size="7.2" font-style="italic" lengthAdjust="spacingAndGlyphs" textLength="48.6" x="1147.05" y="339.3305">ParamHandler</text><line style="stroke: #A80036; stroke-width: 0.8999999999999999;" x1="1058.1" x2="1265.1" y1="343.9125" y2="343.9125"/><text fill="#000000" font-family="sans-serif" font-size="6.6" lengthAdjust="spacingAndGlyphs" textLength="103.2" x="1061.1" y="353.1639">#requiredParams : HashSet&lt;String&gt;</text><text fill="#000000" font-family="sans-serif" font-size="6.6" lengthAdjust="spacingAndGlyphs" textLength="137.4" x="1061.1" y="361.4654">#paramsSuccessfullyParsed : HashSet&lt;String&gt;</text><text fill="#000000" font-family="sans-serif" font-size="6.6" lengthAdjust="spacingAndGlyphs" textLength="126.6" x="1061.1" y="369.767">#missingRequiredParams : HashSet&lt;String&gt;</text><text fill="#000000" font-family="sans-serif" font-size="6.6" lengthAdjust="spacingAndGlyphs" textLength="93" x="1061.1" y="378.0686">#paramChecker : ParamChecker</text><text fill="#000000" font-family="sans-serif" font-size="6.6" lengthAdjust="spacingAndGlyphs" textLength="91.8" x="1061.1" y="386.3701">#hasParsedAllParams : boolean</text><line style="stroke: #A80036; stroke-width: 0.8999999999999999;" x1="1058.1" x2="1265.1" y1="390.2203" y2="390.2203"/><text fill="#000000" font-family="sans-serif" font-size="6.6" lengthAdjust="spacingAndGlyphs" textLength="138.6" x="1061.1" y="399.4717">+handleParams(packet : CommandPacket) : void</text><text fill="#000000" font-family="sans-serif" font-size="6.6" lengthAdjust="spacingAndGlyphs" textLength="132" x="1061.1" y="407.7732">+getHasParsedAllRequiredParams() : boolean</text><text fill="#000000" font-family="sans-serif" font-size="6.6" lengthAdjust="spacingAndGlyphs" textLength="145.8" x="1061.1" y="416.0748">+setRequiredParams(paramTypes : String...) : void</text><text fill="#000000" font-family="sans-serif" font-size="6.6" lengthAdjust="spacingAndGlyphs" textLength="97.2" x="1061.1" y="424.3764">+resetAllParamCollections() : void</text><text fill="#000000" font-family="sans-serif" font-size="6.6" lengthAdjust="spacingAndGlyphs" textLength="109.2" x="1061.1" y="432.6779">#checkParseFailedParams() : boolean</text><text fill="#000000" font-family="sans-serif" font-size="6.6" lengthAdjust="spacingAndGlyphs" textLength="173.4" x="1061.1" y="440.9795">#checkParamRequirementSatisfied(param : String) : boolean</text><text fill="#000000" font-family="sans-serif" font-size="6.6" font-style="italic" lengthAdjust="spacingAndGlyphs" textLength="201" x="1061.1" y="449.2811">+handleSingleParam(packet : CommandPacket, paramType : String)</text><!--MD5=[06004beffce0bf34ea760906cfa130b7]
class ParamChecker--><rect fill="#FEFECE" height="83.5219" id="ParamChecker" style="stroke: #A80036; stroke-width: 0.8999999999999999;" width="203.4" x="1057.5" y="200.4"/><ellipse cx="1131.75" cy="212.4562" fill="#ADD1B2" rx="6.6" ry="6.6" style="stroke: #A80036; stroke-width: 0.6;"/><path d="M1132.95,210.3563 Q1133.0719,210.0563 1133.2125,209.9063 Q1133.3531,209.7563 1133.5125,209.7563 Q1133.7938,209.7563 1133.9719,209.925 Q1134.15,210.0938 1134.15,210.4875 L1134.15,211.425 Q1134.15,211.8188 1133.9813,211.9875 Q1133.8125,212.1563 1133.55,212.1563 Q1133.3156,212.1563 1133.1656,212.0531 Q1133.0156,211.95 1132.95,211.6781 Q1132.9219,211.4906 1132.8188,211.3875 Q1132.6313,211.1906 1132.2938,211.0781 Q1131.9563,210.9562 1131.6187,210.9562 Q1131.1969,210.9562 1130.8406,211.125 Q1130.4937,211.2938 1130.2219,211.6688 Q1129.95,212.0438 1129.95,212.5594 L1129.95,213.1125 Q1129.95,213.7313 1130.4563,214.1437 Q1130.9625,214.5563 1131.8625,214.5563 Q1132.3969,214.5563 1132.7719,214.4344 Q1132.9875,214.3688 1133.2313,214.1531 Q1133.3906,214.0313 1133.475,213.9938 Q1133.5594,213.9562 1133.6625,213.9562 Q1133.8594,213.9562 1134,214.1156 Q1134.15,214.2656 1134.15,214.4813 Q1134.15,214.6875 1133.9438,214.9313 Q1133.6438,215.2875 1133.1656,215.4844 Q1132.5375,215.7563 1131.7688,215.7563 Q1130.8687,215.7563 1130.1469,215.4 Q1129.5656,215.1188 1129.1531,214.5094 Q1128.75,213.9 1128.75,213.1781 L1128.75,212.5219 Q1128.75,211.7719 1129.1063,211.1156 Q1129.4719,210.4594 1130.1,210.1125 Q1130.7375,209.7563 1131.45,209.7563 Q1131.8813,209.7563 1132.2563,209.9063 Q1132.6313,210.0563 1132.95,210.3563 Z "/><text fill="#000000" font-family="sans-serif" font-size="7.2" font-style="italic" lengthAdjust="spacingAndGlyphs" textLength="39.6" x="1149.15" y="210.8742">«Singleton»</text><text fill="#000000" font-family="sans-serif" font-size="7.2" lengthAdjust="spacingAndGlyphs" textLength="49.8" x="1144.05" y="219.9305">ParamChecker</text><line style="stroke: #A80036; stroke-width: 0.8999999999999999;" x1="1058.1" x2="1260.3" y1="224.5125" y2="224.5125"/><line style="stroke: #A80036; stroke-width: 0.8999999999999999;" x1="1058.1" x2="1260.3" y1="229.3125" y2="229.3125"/><text fill="#000000" font-family="sans-serif" font-size="6.6" lengthAdjust="spacingAndGlyphs" textLength="159" x="1061.1" y="238.5639">+checkAndReturnDate(paramType : String) : LocalDate</text><text fill="#000000" font-family="sans-serif" font-size="6.6" lengthAdjust="spacingAndGlyphs" textLength="159" x="1061.1" y="246.8654">+checkAndReturnTime(paramType : String) : LocalTime</text><text fill="#000000" font-family="sans-serif" font-size="6.6" lengthAdjust="spacingAndGlyphs" textLength="196.2" x="1061.1" y="255.167">+checkAndReturnIndex(paramType : String, list : ArrayList) : Integer</text><text fill="#000000" font-family="sans-serif" font-size="6.6" lengthAdjust="spacingAndGlyphs" textLength="156.6" x="1061.1" y="263.4686">+checkAndReturnDouble(paramType : String) : Double</text><text fill="#000000" font-family="sans-serif" font-size="6.6" lengthAdjust="spacingAndGlyphs" textLength="143.4" x="1061.1" y="271.7701">+checkAndReturnInt(paramType : String) : Integer</text><text fill="#000000" font-family="sans-serif" font-size="6.6" lengthAdjust="spacingAndGlyphs" textLength="160.2" x="1061.1" y="280.0717">+checkAndReturnCategory(paramType : String) : String</text><polygon fill="#FFFFFF" points="1281.9,225.6,1295.7,225.6,1299.9,239.7656,1330.5,239.7656,1330.5,258.7313,1281.9,258.7313,1281.9,225.6" style="stroke: #FFFFFF; stroke-width: 0.8999999999999999;"/><line style="stroke: #FFFFFF; stroke-width: 0.8999999999999999;" x1="1281.9" x2="1299.9" y1="239.7656" y2="239.7656"/><text fill="#FFFFFF" font-family="sans-serif" font-size="8.4" font-weight="bold" lengthAdjust="spacingAndGlyphs" textLength="10.2" x="1284.3" y="235.5199">p1</text><text fill="#FFFFFF" font-family="sans-serif" font-size="8.4" font-style="italic" lengthAdjust="spacingAndGlyphs" textLength="35.4" x="1290.9" y="249.6855">«Layout»</text><polygon fill="#FFFFFF" points="987.9,225.6,1001.7,225.6,1005.9,239.7656,1036.5,239.7656,1036.5,258.7313,987.9,258.7313,987.9,225.6" style="stroke: #FFFFFF; stroke-width: 0.8999999999999999;"/><line style="stroke: #FFFFFF; stroke-width: 0.8999999999999999;" x1="987.9" x2="1005.9" y1="239.7656" y2="239.7656"/><text fill="#FFFFFF" font-family="sans-serif" font-size="8.4" font-weight="bold" lengthAdjust="spacingAndGlyphs" textLength="10.2" x="990.3" y="235.5199">p2</text><text fill="#FFFFFF" font-family="sans-serif" font-size="8.4" font-style="italic" lengthAdjust="spacingAndGlyphs" textLength="35.4" x="996.9" y="249.6855">«Layout»</text><polygon fill="#FFFFFF" points="987.9,369.9,1001.7,369.9,1005.9,384.0656,1036.5,384.0656,1036.5,403.0313,987.9,403.0313,987.9,369.9" style="stroke: #FFFFFF; stroke-width: 0.8999999999999999;"/><line style="stroke: #FFFFFF; stroke-width: 0.8999999999999999;" x1="987.9" x2="1005.9" y1="384.0656" y2="384.0656"/><text fill="#FFFFFF" font-family="sans-serif" font-size="8.4" font-weight="bold" lengthAdjust="spacingAndGlyphs" textLength="10.2" x="990.3" y="379.8199">p3</text><text fill="#FFFFFF" font-family="sans-serif" font-size="8.4" font-style="italic" lengthAdjust="spacingAndGlyphs" textLength="35.4" x="996.9" y="393.9855">«Layout»</text><!--MD5=[6664f2e0097b94955b346f020d8ccc7e]
class createLedgerCommand--><rect fill="#FEFECE" height="53.7047" id="createLedgerCommand" style="stroke: #A80036; stroke-width: 0.8999999999999999;" width="145.8" x="758.1" y="81.6"/><ellipse cx="788.85" cy="91.2" fill="#ADD1B2" rx="6.6" ry="6.6" style="stroke: #A80036; stroke-width: 0.6;"/><path d="M790.05,89.1 Q790.1719,88.8 790.3125,88.65 Q790.4531,88.5 790.6125,88.5 Q790.8938,88.5 791.0719,88.6688 Q791.25,88.8375 791.25,89.2313 L791.25,90.1688 Q791.25,90.5625 791.0813,90.7313 Q790.9125,90.9 790.65,90.9 Q790.4156,90.9 790.2656,90.7969 Q790.1156,90.6938 790.05,90.4219 Q790.0219,90.2344 789.9187,90.1313 Q789.7312,89.9344 789.3938,89.8219 Q789.0563,89.7 788.7188,89.7 Q788.2969,89.7 787.9406,89.8687 Q787.5938,90.0375 787.3219,90.4125 Q787.05,90.7875 787.05,91.3031 L787.05,91.8563 Q787.05,92.475 787.5563,92.8875 Q788.0625,93.3 788.9625,93.3 Q789.4969,93.3 789.8719,93.1781 Q790.0875,93.1125 790.3313,92.8969 Q790.4906,92.775 790.575,92.7375 Q790.6594,92.7 790.7625,92.7 Q790.9594,92.7 791.1,92.8594 Q791.25,93.0094 791.25,93.225 Q791.25,93.4312 791.0437,93.675 Q790.7438,94.0313 790.2656,94.2281 Q789.6375,94.5 788.8688,94.5 Q787.9688,94.5 787.2469,94.1438 Q786.6656,93.8625 786.2531,93.2531 Q785.85,92.6438 785.85,91.9219 L785.85,91.2656 Q785.85,90.5156 786.2063,89.8594 Q786.5719,89.2031 787.2,88.8563 Q787.8375,88.5 788.55,88.5 Q788.9812,88.5 789.3562,88.65 Q789.7312,88.8 790.05,89.1 Z "/><text fill="#000000" font-family="sans-serif" font-size="7.2" lengthAdjust="spacingAndGlyphs" textLength="79.2" x="801.15" y="94.1461">createLedgerCommand</text><line style="stroke: #A80036; stroke-width: 0.8999999999999999;" x1="758.7" x2="903.3" y1="100.8" y2="100.8"/><line style="stroke: #A80036; stroke-width: 0.8999999999999999;" x1="758.7" x2="903.3" y1="105.6" y2="105.6"/><text fill="#000000" font-family="sans-serif" font-size="6.6" lengthAdjust="spacingAndGlyphs" textLength="64.2" x="761.7" y="114.8514">+handlePacket() : void</text><text fill="#000000" font-family="sans-serif" font-size="6.6" lengthAdjust="spacingAndGlyphs" textLength="138.6" x="761.7" y="123.1529">+handleSingleParams(paramType : String) : void</text><text fill="#000000" font-family="sans-serif" font-size="6.6" lengthAdjust="spacingAndGlyphs" textLength="138.6" x="761.7" y="131.4545">+handleParams(packet : CommandPacket) : void</text><!--MD5=[f138833b9ad68b5f07b9b6426196037f]
class retrieveLedgerCommand--><rect fill="#FEFECE" height="53.7047" id="retrieveLedgerCommand" style="stroke: #A80036; stroke-width: 0.8999999999999999;" width="145.8" x="591.3" y="81.6"/><ellipse cx="620.25" cy="91.2" fill="#ADD1B2" rx="6.6" ry="6.6" style="stroke: #A80036; stroke-width: 0.6;"/><path d="M621.45,89.1 Q621.5719,88.8 621.7125,88.65 Q621.8531,88.5 622.0125,88.5 Q622.2937,88.5 622.4719,88.6688 Q622.65,88.8375 622.65,89.2313 L622.65,90.1688 Q622.65,90.5625 622.4812,90.7313 Q622.3125,90.9 622.05,90.9 Q621.8156,90.9 621.6656,90.7969 Q621.5156,90.6938 621.45,90.4219 Q621.4219,90.2344 621.3188,90.1313 Q621.1313,89.9344 620.7937,89.8219 Q620.4563,89.7 620.1188,89.7 Q619.6969,89.7 619.3406,89.8687 Q618.9938,90.0375 618.7219,90.4125 Q618.45,90.7875 618.45,91.3031 L618.45,91.8563 Q618.45,92.475 618.9563,92.8875 Q619.4625,93.3 620.3625,93.3 Q620.8969,93.3 621.2719,93.1781 Q621.4875,93.1125 621.7312,92.8969 Q621.8906,92.775 621.975,92.7375 Q622.0594,92.7 622.1625,92.7 Q622.3594,92.7 622.5,92.8594 Q622.65,93.0094 622.65,93.225 Q622.65,93.4312 622.4438,93.675 Q622.1438,94.0313 621.6656,94.2281 Q621.0375,94.5 620.2688,94.5 Q619.3688,94.5 618.6469,94.1438 Q618.0656,93.8625 617.6531,93.2531 Q617.25,92.6438 617.25,91.9219 L617.25,91.2656 Q617.25,90.5156 617.6062,89.8594 Q617.9719,89.2031 618.6,88.8563 Q619.2375,88.5 619.95,88.5 Q620.3813,88.5 620.7563,88.65 Q621.1313,88.8 621.45,89.1 Z "/><text fill="#000000" font-family="sans-serif" font-size="7.2" lengthAdjust="spacingAndGlyphs" textLength="82.8" x="632.55" y="94.1461">retrieveLedgerCommand</text><line style="stroke: #A80036; stroke-width: 0.8999999999999999;" x1="591.9" x2="736.5" y1="100.8" y2="100.8"/><line style="stroke: #A80036; stroke-width: 0.8999999999999999;" x1="591.9" x2="736.5" y1="105.6" y2="105.6"/><text fill="#000000" font-family="sans-serif" font-size="6.6" lengthAdjust="spacingAndGlyphs" textLength="64.2" x="594.9" y="114.8514">+handlePacket() : void</text><text fill="#000000" font-family="sans-serif" font-size="6.6" lengthAdjust="spacingAndGlyphs" textLength="138.6" x="594.9" y="123.1529">+handleSingleParams(paramType : String) : void</text><text fill="#000000" font-family="sans-serif" font-size="6.6" lengthAdjust="spacingAndGlyphs" textLength="138.6" x="594.9" y="131.4545">+handleParams(packet : CommandPacket) : void</text><polygon fill="#FFFFFF" points="32.7,225.6,46.5,225.6,50.7,239.7656,81.3,239.7656,81.3,258.7313,32.7,258.7313,32.7,225.6" style="stroke: #FFFFFF; stroke-width: 0.8999999999999999;"/><line style="stroke: #FFFFFF; stroke-width: 0.8999999999999999;" x1="32.7" x2="50.7" y1="239.7656" y2="239.7656"/><text fill="#FFFFFF" font-family="sans-serif" font-size="8.4" font-weight="bold" lengthAdjust="spacingAndGlyphs" textLength="10.2" x="35.1" y="235.5199">p4</text><text fill="#FFFFFF" font-family="sans-serif" font-size="8.4" font-style="italic" lengthAdjust="spacingAndGlyphs" textLength="35.4" x="41.7" y="249.6855">«Layout»</text><!--MD5=[5b087c9db1affef8c8af8e0dc0e08cbd]
class createEntryCommand--><rect fill="#FEFECE" height="53.7047" id="createEntryCommand" style="stroke: #A80036; stroke-width: 0.8999999999999999;" width="145.8" x="401.7" y="81.6"/><ellipse cx="436.05" cy="91.2" fill="#ADD1B2" rx="6.6" ry="6.6" style="stroke: #A80036; stroke-width: 0.6;"/><path d="M437.25,89.1 Q437.3719,88.8 437.5125,88.65 Q437.6531,88.5 437.8125,88.5 Q438.0938,88.5 438.2719,88.6688 Q438.45,88.8375 438.45,89.2313 L438.45,90.1688 Q438.45,90.5625 438.2813,90.7313 Q438.1125,90.9 437.85,90.9 Q437.6156,90.9 437.4656,90.7969 Q437.3156,90.6938 437.25,90.4219 Q437.2219,90.2344 437.1188,90.1313 Q436.9313,89.9344 436.5938,89.8219 Q436.2562,89.7 435.9188,89.7 Q435.4969,89.7 435.1406,89.8687 Q434.7938,90.0375 434.5219,90.4125 Q434.25,90.7875 434.25,91.3031 L434.25,91.8563 Q434.25,92.475 434.7562,92.8875 Q435.2625,93.3 436.1625,93.3 Q436.6969,93.3 437.0719,93.1781 Q437.2875,93.1125 437.5313,92.8969 Q437.6906,92.775 437.775,92.7375 Q437.8594,92.7 437.9625,92.7 Q438.1594,92.7 438.3,92.8594 Q438.45,93.0094 438.45,93.225 Q438.45,93.4312 438.2438,93.675 Q437.9437,94.0313 437.4656,94.2281 Q436.8375,94.5 436.0687,94.5 Q435.1688,94.5 434.4469,94.1438 Q433.8656,93.8625 433.4531,93.2531 Q433.05,92.6438 433.05,91.9219 L433.05,91.2656 Q433.05,90.5156 433.4063,89.8594 Q433.7719,89.2031 434.4,88.8563 Q435.0375,88.5 435.75,88.5 Q436.1813,88.5 436.5563,88.65 Q436.9313,88.8 437.25,89.1 Z "/><text fill="#000000" font-family="sans-serif" font-size="7.2" lengthAdjust="spacingAndGlyphs" textLength="72" x="448.35" y="94.1461">createEntryCommand</text><line style="stroke: #A80036; stroke-width: 0.8999999999999999;" x1="402.3" x2="546.9" y1="100.8" y2="100.8"/><line style="stroke: #A80036; stroke-width: 0.8999999999999999;" x1="402.3" x2="546.9" y1="105.6" y2="105.6"/><text fill="#000000" font-family="sans-serif" font-size="6.6" lengthAdjust="spacingAndGlyphs" textLength="64.2" x="405.3" y="114.8514">+handlePacket() : void</text><text fill="#000000" font-family="sans-serif" font-size="6.6" lengthAdjust="spacingAndGlyphs" textLength="138.6" x="405.3" y="123.1529">+handleSingleParams(paramType : String) : void</text><text fill="#000000" font-family="sans-serif" font-size="6.6" lengthAdjust="spacingAndGlyphs" textLength="138.6" x="405.3" y="131.4545">+handleParams(packet : CommandPacket) : void</text><!--MD5=[243a2962e5ad66f4d6ab3946ff95e4ee]
class editEntryHandler--><rect fill="#FEFECE" height="53.7047" id="editEntryHandler" style="stroke: #A80036; stroke-width: 0.8999999999999999;" width="145.8" x="234.9" y="81.6"/><ellipse cx="273.45" cy="91.2" fill="#ADD1B2" rx="6.6" ry="6.6" style="stroke: #A80036; stroke-width: 0.6;"/><path d="M274.65,89.1 Q274.7719,88.8 274.9125,88.65 Q275.0531,88.5 275.2125,88.5 Q275.4938,88.5 275.6719,88.6688 Q275.85,88.8375 275.85,89.2313 L275.85,90.1688 Q275.85,90.5625 275.6813,90.7313 Q275.5125,90.9 275.25,90.9 Q275.0156,90.9 274.8656,90.7969 Q274.7156,90.6938 274.65,90.4219 Q274.6219,90.2344 274.5188,90.1313 Q274.3313,89.9344 273.9938,89.8219 Q273.6563,89.7 273.3187,89.7 Q272.8969,89.7 272.5406,89.8687 Q272.1937,90.0375 271.9219,90.4125 Q271.65,90.7875 271.65,91.3031 L271.65,91.8563 Q271.65,92.475 272.1563,92.8875 Q272.6625,93.3 273.5625,93.3 Q274.0969,93.3 274.4719,93.1781 Q274.6875,93.1125 274.9313,92.8969 Q275.0906,92.775 275.175,92.7375 Q275.2594,92.7 275.3625,92.7 Q275.5594,92.7 275.7,92.8594 Q275.85,93.0094 275.85,93.225 Q275.85,93.4312 275.6438,93.675 Q275.3438,94.0313 274.8656,94.2281 Q274.2375,94.5 273.4688,94.5 Q272.5687,94.5 271.8469,94.1438 Q271.2656,93.8625 270.8531,93.2531 Q270.45,92.6438 270.45,91.9219 L270.45,91.2656 Q270.45,90.5156 270.8063,89.8594 Q271.1719,89.2031 271.8,88.8563 Q272.4375,88.5 273.15,88.5 Q273.5813,88.5 273.9563,88.65 Q274.3313,88.8 274.65,89.1 Z "/><text fill="#000000" font-family="sans-serif" font-size="7.2" lengthAdjust="spacingAndGlyphs" textLength="63.6" x="285.75" y="94.1461">editEntryHandler</text><line style="stroke: #A80036; stroke-width: 0.8999999999999999;" x1="235.5" x2="380.1" y1="100.8" y2="100.8"/><line style="stroke: #A80036; stroke-width: 0.8999999999999999;" x1="235.5" x2="380.1" y1="105.6" y2="105.6"/><text fill="#000000" font-family="sans-serif" font-size="6.6" lengthAdjust="spacingAndGlyphs" textLength="64.2" x="238.5" y="114.8514">+handlePacket() : void</text><text fill="#000000" font-family="sans-serif" font-size="6.6" lengthAdjust="spacingAndGlyphs" textLength="138.6" x="238.5" y="123.1529">+handleSingleParams(paramType : String) : void</text><text fill="#000000" font-family="sans-serif" font-size="6.6" lengthAdjust="spacingAndGlyphs" textLength="138.6" x="238.5" y="131.4545">+handleParams(packet : CommandPacket) : void</text><!--MD5=[da62ec058657e83946982830782b26eb]
class retrieveEntryHandler--><rect fill="#FEFECE" height="53.7047" id="retrieveEntryHandler" style="stroke: #A80036; stroke-width: 0.8999999999999999;" width="145.8" x="68.1" y="81.6"/><ellipse cx="100.65" cy="91.2" fill="#ADD1B2" rx="6.6" ry="6.6" style="stroke: #A80036; stroke-width: 0.6;"/><path d="M101.85,89.1 Q101.9719,88.8 102.1125,88.65 Q102.2531,88.5 102.4125,88.5 Q102.6938,88.5 102.8719,88.6688 Q103.05,88.8375 103.05,89.2313 L103.05,90.1688 Q103.05,90.5625 102.8813,90.7313 Q102.7125,90.9 102.45,90.9 Q102.2156,90.9 102.0656,90.7969 Q101.9156,90.6938 101.85,90.4219 Q101.8219,90.2344 101.7188,90.1313 Q101.5313,89.9344 101.1938,89.8219 Q100.8563,89.7 100.5188,89.7 Q100.0969,89.7 99.7406,89.8687 Q99.3938,90.0375 99.1219,90.4125 Q98.85,90.7875 98.85,91.3031 L98.85,91.8563 Q98.85,92.475 99.3563,92.8875 Q99.8625,93.3 100.7625,93.3 Q101.2969,93.3 101.6719,93.1781 Q101.8875,93.1125 102.1313,92.8969 Q102.2906,92.775 102.375,92.7375 Q102.4594,92.7 102.5625,92.7 Q102.7594,92.7 102.9,92.8594 Q103.05,93.0094 103.05,93.225 Q103.05,93.4312 102.8438,93.675 Q102.5438,94.0313 102.0656,94.2281 Q101.4375,94.5 100.6688,94.5 Q99.7688,94.5 99.0469,94.1438 Q98.4656,93.8625 98.0531,93.2531 Q97.65,92.6438 97.65,91.9219 L97.65,91.2656 Q97.65,90.5156 98.0063,89.8594 Q98.3719,89.2031 99,88.8563 Q99.6375,88.5 100.35,88.5 Q100.7813,88.5 101.1563,88.65 Q101.5313,88.8 101.85,89.1 Z "/><text fill="#000000" font-family="sans-serif" font-size="7.2" lengthAdjust="spacingAndGlyphs" textLength="75.6" x="112.95" y="94.1461">retrieveEntryHandler</text><line style="stroke: #A80036; stroke-width: 0.8999999999999999;" x1="68.7" x2="213.3" y1="100.8" y2="100.8"/><line style="stroke: #A80036; stroke-width: 0.8999999999999999;" x1="68.7" x2="213.3" y1="105.6" y2="105.6"/><text fill="#000000" font-family="sans-serif" font-size="6.6" lengthAdjust="spacingAndGlyphs" textLength="64.2" x="71.7" y="114.8514">+handlePacket() : void</text><text fill="#000000" font-family="sans-serif" font-size="6.6" lengthAdjust="spacingAndGlyphs" textLength="138.6" x="71.7" y="123.1529">+handleSingleParams(paramType : String) : void</text><text fill="#000000" font-family="sans-serif" font-size="6.6" lengthAdjust="spacingAndGlyphs" textLength="138.6" x="71.7" y="131.4545">+handleParams(packet : CommandPacket) : void</text><!--MD5=[d2819e9632456adc25add9bee5f85159]
link ParamChecker to p1--><!--MD5=[a97d6436826547d083930d9714b2a412]
link p3 to ParamHandler--><!--MD5=[0881a4d557c731286cb861209ed081e7]
link EntryCommands to p4--><!--MD5=[cc5d5bcc60f9f74c0b9aa5eddf36cf82]
link ParamChecker to ParamHandler--><!--MD5=[4a199e3ac4fab76a89f89b2389943ae9]
reverse link ParamChecker to createLedgerCommand--><path d="M1054.374,204.6 C1054.374,204.6 855.3,204.6 855.3,204.6 C855.3,204.6 855.3,164.232 855.3,135.852 " fill="none" id="ParamChecker&lt;-createLedgerCommand" style="stroke: #0000FF; stroke-width: 1.2;"/><polygon fill="#0000FF" points="1057.374,204.6,1051.974,202.2,1054.374,204.6,1051.974,207,1057.374,204.6" style="stroke: #0000FF; stroke-width: 1.2;"/><text fill="#FF0000" font-family="sans-serif" font-size="7.8" lengthAdjust="spacingAndGlyphs" textLength="4.2" x="1048.4649" y="201.1824">1</text><!--MD5=[de029975a1d0611d48edae9699871cd3]
reverse link ParamChecker to retrieveLedgerCommand--><path d="M1054.356,208.8 C1054.356,208.8 688.5,208.8 688.5,208.8 C688.5,208.8 688.5,165.39 688.5,135.714 " fill="none" id="ParamChecker&lt;-retrieveLedgerCommand" style="stroke: #0000FF; stroke-width: 1.2;"/><polygon fill="#0000FF" points="1057.356,208.8,1051.956,206.4,1054.356,208.8,1051.956,211.2,1057.356,208.8" style="stroke: #0000FF; stroke-width: 1.2;"/><text fill="#FF0000" font-family="sans-serif" font-size="7.8" lengthAdjust="spacingAndGlyphs" textLength="4.2" x="1048.446" y="215.6077">1</text><!--MD5=[b2517848a78c0491fb3f751641e279e8]
reverse link ParamChecker to createEntryCommand--><path d="M1054.476,213 C1054.476,213 498.9,213 498.9,213 C498.9,213 498.9,166.692 498.9,135.756 " fill="none" id="ParamChecker&lt;-createEntryCommand" style="stroke: #0000FF; stroke-width: 1.2;"/><polygon fill="#0000FF" points="1057.476,213,1052.076,210.6,1054.476,213,1052.076,215.4,1057.476,213" style="stroke: #0000FF; stroke-width: 1.2;"/><text fill="#FF0000" font-family="sans-serif" font-size="7.8" lengthAdjust="spacingAndGlyphs" textLength="4.2" x="1048.5715" y="209.963">1</text><!--MD5=[4ed4ec4a97dafbc4201075a8f888f86d]
reverse link ParamChecker to editEntryHandler--><path d="M1054.368,217.2 C1054.368,217.2 332.1,217.2 332.1,217.2 C332.1,217.2 332.1,167.892 332.1,135.726 " fill="none" id="ParamChecker&lt;-editEntryHandler" style="stroke: #0000FF; stroke-width: 1.2;"/><polygon fill="#0000FF" points="1057.368,217.2,1051.968,214.8,1054.368,217.2,1051.968,219.6,1057.368,217.2" style="stroke: #0000FF; stroke-width: 1.2;"/><text fill="#FF0000" font-family="sans-serif" font-size="7.8" lengthAdjust="spacingAndGlyphs" textLength="4.2" x="1048.4586" y="224.3883">1</text><!--MD5=[2369ae64a53d82f9ac83109310005975]
reverse link ParamChecker to retrieveEntryHandler--><path d="M1054.494,221.4 C1054.494,221.4 169.698,221.4 169.698,221.4 C169.698,221.4 169.698,168.99 169.698,135.618 " fill="none" id="ParamChecker&lt;-retrieveEntryHandler" style="stroke: #0000FF; stroke-width: 1.2;"/><polygon fill="#0000FF" points="1057.494,221.4,1052.094,219,1054.494,221.4,1052.094,223.8,1057.494,221.4" style="stroke: #0000FF; stroke-width: 1.2;"/><text fill="#FF0000" font-family="sans-serif" font-size="7.8" lengthAdjust="spacingAndGlyphs" textLength="4.2" x="1048.5903" y="228.7786">1</text><!--MD5=[822d3caa45744d32f14de384eae274c8]
reverse link ParamHandler to createLedgerCommand--><path d="M1045.278,328.2 C1045.278,328.2 806.7,328.2 806.7,328.2 C806.7,328.2 806.7,194.502 806.7,135.75 " fill="none" id="ParamHandler&lt;-createLedgerCommand" style="stroke: #800080; stroke-width: 1.2;"/><polygon fill="none" points="1045.278,324,1057.278,328.2,1045.278,332.4,1045.278,324" style="stroke: #800080; stroke-width: 1.2;"/><!--MD5=[6183f16c2541e4928372bea00397fbae]
reverse link ParamHandler to retrieveLedgerCommand--><path d="M1045.434,336.6 C1045.434,336.6 639.9,336.6 639.9,336.6 C639.9,336.6 639.9,196.044 639.9,135.648 " fill="none" id="ParamHandler&lt;-retrieveLedgerCommand" style="stroke: #800080; stroke-width: 1.2;"/><polygon fill="none" points="1045.434,332.4,1057.434,336.6,1045.434,340.8,1045.434,332.4" style="stroke: #800080; stroke-width: 1.2;"/><!--MD5=[10a18f18650a0be75ffeaa1347edd6ed]
reverse link ParamHandler to createEntryCommand--><path d="M1045.41,345 C1045.41,345 450.3,345 450.3,345 C450.3,345 450.3,197.814 450.3,135.72 " fill="none" id="ParamHandler&lt;-createEntryCommand" style="stroke: #800080; stroke-width: 1.2;"/><polygon fill="none" points="1045.41,340.8,1057.41,345,1045.41,349.2,1045.41,340.8" style="stroke: #800080; stroke-width: 1.2;"/><!--MD5=[db6b0dbcc1ff18d1ceb759a5b92f06e0]
reverse link ParamHandler to retrieveEntryHandler--><path d="M1045.272,361.8 C1045.272,361.8 125.502,361.8 125.502,361.8 C125.502,361.8 125.502,201.018 125.502,135.696 " fill="none" id="ParamHandler&lt;-retrieveEntryHandler" style="stroke: #800080; stroke-width: 1.2;"/><polygon fill="none" points="1045.272,357.6,1057.272,361.8,1045.272,366,1045.272,357.6" style="stroke: #800080; stroke-width: 1.2;"/><!--MD5=[21a929abb65d782940175c74bf255bdd]
reverse link ParamHandler to editEntryHandler--><path d="M1045.422,353.4 C1045.422,353.4 283.5,353.4 283.5,353.4 C283.5,353.4 283.5,199.47 283.5,135.732 " fill="none" id="ParamHandler&lt;-editEntryHandler" style="stroke: #800080; stroke-width: 1.2;"/><polygon fill="none" points="1045.422,349.2,1057.422,353.4,1045.422,357.6,1045.422,349.2" style="stroke: #800080; stroke-width: 1.2;"/><!--MD5=[0afd1a692c0086d4207652403804b0b3]
link Commands to Logic--><!--MD5=[5c595dee491d265eb6faf7a4981c7be8]
@startuml
skinparam classAttributeIconSize 0
skinparam BoxPadding 20
skinparam shadowing false
skinparam linetype ortho
skinparam package<<Layout>> {
  borderColor Transparent
  backgroundColor Transparent
  fontColor Transparent
  stereotypeFontColor Transparent
}

rectangle Logic {
    abstract class ParamHandler <<Singleton>> {
        # requiredParams : HashSet<String>
        # paramsSuccessfullyParsed : HashSet<String>
        # missingRequiredParams : HashSet<String>
        # paramChecker : ParamChecker
        # hasParsedAllParams : boolean
        + handleParams(packet : CommandPacket) : void
        + getHasParsedAllRequiredParams() : boolean
        + setRequiredParams(paramTypes : String...) : void
        + resetAllParamCollections() : void
        # checkParseFailedParams() : boolean
        # checkParamRequirementSatisfied(param : String) : boolean
        + {abstract} handleSingleParam(packet : CommandPacket, paramType : String)
    }

    package p1 <<Layout>> {
    }

    package p2 <<Layout>> {
    }

    package p3 <<Layout>> {
    }


    class ParamChecker <<Singleton>>{
        + checkAndReturnDate(paramType : String) : LocalDate
        + checkAndReturnTime(paramType : String) : LocalTime
        + checkAndReturnIndex(paramType : String, list : ArrayList) : Integer
        + checkAndReturnDouble(paramType : String) : Double
        + checkAndReturnInt(paramType : String) : Integer
        + checkAndReturnCategory(paramType : String) : String
    }

    ParamChecker -[hidden] p1

    p3 -[hidden] ParamHandler
}

rectangle Commands {
    rectangle LedgerCommands {
        class createLedgerCommand {
            + handlePacket() : void
            + handleSingleParams(paramType : String) : void
            + handleParams(packet : CommandPacket) : void
        }
        class retrieveLedgerCommand {
            + handlePacket() : void
            + handleSingleParams(paramType : String) : void
            + handleParams(packet : CommandPacket) : void
        }
    }

    package p4 <<Layout>> {
    }

    rectangle EntryCommands {
        class createEntryCommand {
            + handlePacket() : void
            + handleSingleParams(paramType : String) : void
            + handleParams(packet : CommandPacket) : void
        }
        class editEntryHandler {
            + handlePacket() : void
            + handleSingleParams(paramType : String) : void
            + handleParams(packet : CommandPacket) : void
        }
        class retrieveEntryHandler {
            + handlePacket() : void
            + handleSingleParams(paramType : String) : void
            + handleParams(packet : CommandPacket) : void
        }
    }

    EntryCommands -[hidden]- p4
    ParamChecker -[hidden]- ParamHandler
}

ParamChecker "1" <-[norank]- createLedgerCommand #line:blue;line.bold;text:red
ParamChecker "1" <-[norank]- retrieveLedgerCommand #line:blue;line.bold;text:red
ParamChecker "1" <-[norank]- createEntryCommand #line:blue;line.bold;text:red
ParamChecker "1" <-[norank]- editEntryHandler #line:blue;line.bold;text:red
ParamChecker "1" <-[norank]- retrieveEntryHandler #line:blue;line.bold;text:red
ParamHandler <|-[norank]- createLedgerCommand #line:purple;line.bold;text:red
ParamHandler <|-[norank]- retrieveLedgerCommand #line:purple;line.bold;text:red
ParamHandler <|-[norank]- createEntryCommand #line:purple;line.bold;text:red
ParamHandler <|-[norank]- retrieveEntryHandler #line:purple;line.bold;text:red
ParamHandler <|-[norank]- editEntryHandler #line:purple;line.bold;text:red

Commands -[hidden]down- Logic

@enduml

PlantUML version 1.2020.09(Sun May 10 18:51:06 GMT+08:00 2020)
(GPL source distribution)
Java Runtime: OpenJDK Runtime Environment
JVM: OpenJDK 64-Bit Server VM
Java Version: 11.0.6+8-b765.40
Operating System: Windows 10
Default Encoding: Cp1252
Language: en
Country: US
--></g></svg>